<svg xmlns="http://www.w3.org/2000/svg" width="1013" height="487" viewBox="0 0 1012.5 487.5"><defs><clipPath><path d="M0.3 18L1011.7 18 1011.7 385 0.3 385ZM0.3 18"/></clipPath><clipPath><path d="M0.3 68L1011.7 68 1011.7 436 0.3 436ZM0.3 68"/></clipPath><clipPath><path d="M0.3 119L1011.7 119 1011.7 486.9 0.3 486.9ZM0.3 119"/></clipPath></defs><g clip-path="url(#clip1)"><path d="M102.1 173.1C154.1 169.3 208.5 147.4 266 124.4 341.3 94.2 419 63.1 501.6 69.6 550 73.4 596.3 90.8 635.4 119.5 676.7 149.5 713.5 192.1 747.5 249.8 777.1 299.7 807.8 336.6 839 359 861.7 375.4 883.7 383.9 906.6 384.9 945 386.5 982.9 366.3 1012 344.9L1012 278.7C1006.8 283.8 1001.1 289 994.8 294.1 962.2 321.2 931.7 335.5 908.4 334.5 874.2 333.1 831.5 292.9 790.8 224.3 753.2 160.6 711.9 113.1 664.7 78.9 616.8 44.1 563.1 24.1 505.2 19.4 411.3 11.7 324.1 46.7 247.2 77.5 193.4 99.1 142.6 119.3 98.2 122.8 60.2 125.6 33.5 119.7 18.9 105.2 10.8 97.1 4.7 86 0.3 73.6L0.3 154.5C25.2 170.3 58.8 176.4 102.1 173.1ZM102.1 173.1" style=" stroke:none;fill:rgb(98.039246%,2.749634%,71.369934%)"/></g><g clip-path="url(#clip2)"><path d="M906.8 385.1C883.9 384.1 861.9 375.8 839.2 359.2 808 336.8 777.3 299.9 747.7 250 713.5 192.3 676.9 149.9 635.6 119.7 596.5 91 550.2 73.6 501.8 69.8 419.2 63.1 341.5 94.2 266.2 124.6 208.5 147.6 154.1 169.3 102.1 173.1 58.8 176.4 25.2 170.3 0.3 154.5L0.3 211C29.8 222.5 65 226.7 105.7 223.7 165.6 219.2 226.1 195 284.8 171.5 354.7 143.6 426.9 114.5 497.5 120.3 537 123.6 572.4 136.7 605.6 160.8 641.2 186.7 673.4 224.3 704 275.7 765.1 379 832.7 432.8 905 435.7 907 435.7 909 435.9 911 435.9 947.3 435.9 981.7 423.3 1012.2 405.5L1012.2 345.1C983.1 366.3 945.2 386.5 906.8 385.1ZM906.8 385.1" style=" stroke:none;fill:rgb(100%,79.998779%,0%)"/></g><g clip-path="url(#clip3)"><path d="M911 435.7C909 435.7 907 435.7 905 435.5 832.7 432.6 765.1 378.8 703.8 275.5 673.2 223.9 641 186.3 605.4 160.6 572.2 136.5 536.8 123.2 497.3 120.1 426.7 114.5 354.5 143.4 284.6 171.3 225.9 194.8 165.4 219 105.5 223.5 65 226.7 29.8 222.5 0.3 211L0.3 264.6C32.4 274.1 68.9 277.3 109.6 274.3 177.2 269.2 241.5 243.5 303.9 218.4 442.7 162.8 552.4 118.9 660.5 301.4 731.1 420.5 812.7 482.8 903.3 486.2 906 486.2 908.6 486.4 911.2 486.4 947.5 486.4 981.5 476.9 1012.2 462.8L1012.2 405.7C981.9 423.1 947.5 435.7 911 435.7ZM911 435.7" style=" stroke:none;fill:rgb(11.369324%,80.389404%,82.749939%)"/></g></svg>