<?xml version="1.0" encoding="UTF-8"?>
<svg xmlns="http://www.w3.org/2000/svg" xmlns:xlink="http://www.w3.org/1999/xlink" width="1012.5pt" height="487.499991pt" viewBox="0 0 1012.5 487.499991" version="1.2">
<defs>
<clipPath id="clip1">
  <path d="M 0.269531 207 L 1011.730469 207 L 1011.730469 324 L 0.269531 324 Z M 0.269531 207 "/>
</clipPath>
<clipPath id="clip2">
  <path d="M 286.8125 -201.984375 L 1068.890625 291.972656 L 683.8125 901.664062 L -98.265625 407.707031 Z M 286.8125 -201.984375 "/>
</clipPath>
<clipPath id="clip3">
  <path d="M 286.8125 -201.984375 L 1068.890625 291.972656 L 683.8125 901.664062 L -98.265625 407.707031 Z M 286.8125 -201.984375 "/>
</clipPath>
<clipPath id="clip4">
  <path d="M 0.269531 244 L 1011.730469 244 L 1011.730469 358 L 0.269531 358 Z M 0.269531 244 "/>
</clipPath>
<clipPath id="clip5">
  <path d="M 286.8125 -201.984375 L 1068.890625 291.972656 L 683.8125 901.664062 L -98.265625 407.707031 Z M 286.8125 -201.984375 "/>
</clipPath>
<clipPath id="clip6">
  <path d="M 286.8125 -201.984375 L 1068.890625 291.972656 L 683.8125 901.664062 L -98.265625 407.707031 Z M 286.8125 -201.984375 "/>
</clipPath>
<clipPath id="clip7">
  <path d="M 0.269531 281 L 1011.730469 281 L 1011.730469 408 L 0.269531 408 Z M 0.269531 281 "/>
</clipPath>
<clipPath id="clip8">
  <path d="M 286.8125 -201.984375 L 1068.890625 291.972656 L 683.8125 901.664062 L -98.265625 407.707031 Z M 286.8125 -201.984375 "/>
</clipPath>
<clipPath id="clip9">
  <path d="M 286.8125 -201.984375 L 1068.890625 291.972656 L 683.8125 901.664062 L -98.265625 407.707031 Z M 286.8125 -201.984375 "/>
</clipPath>
</defs>
<g id="surface1">
<g clip-path="url(#clip1)" clip-rule="nonzero">
<g clip-path="url(#clip2)" clip-rule="nonzero">
<g clip-path="url(#clip3)" clip-rule="nonzero">
<path style=" stroke:none;fill-rule:nonzero;fill:rgb(98.039246%,2.749634%,71.369934%);fill-opacity:1;" d="M 228.960938 258.824219 C 278.84375 252.910156 336.894531 247.566406 395.210938 259.457031 C 413.992188 263.660156 432.6875 268.683594 450.945312 274.746094 C 472.144531 281.351562 492.050781 287.578125 510.722656 289.527344 C 540.972656 292.878906 575.6875 285.703125 609.125 278.8125 L 709.238281 258.460938 C 748.957031 250.289062 794.1875 241.003906 841.5625 245.980469 C 896.34375 251.699219 942.613281 274.359375 987.375 296.285156 C 1008.300781 306.4375 1028.5 316.351562 1048.28125 323.8125 L 1068.535156 291.75 C 1048.203125 284.816406 1026.238281 274.226562 1003.59375 262.988281 C 958.207031 240.664062 906.539062 215.472656 845.175781 209.097656 C 792.039062 203.542969 741.804688 213.828125 701.578125 222.117188 L 601.617188 242.566406 C 569.457031 249.164062 539.335938 255.304688 514.589844 252.582031 C 499.464844 250.90625 481.164062 245.257812 461.828125 239.167969 C 442.273438 232.730469 422.441406 227.421875 402.527344 222.941406 C 338.84375 209.851562 277.105469 215.492188 224.460938 221.628906 C 141.390625 231.957031 64.359375 245.886719 -7.28125 264.089844 L -36.421875 310.230469 C 44.335938 287.285156 132.222656 270.367188 228.960938 258.824219 Z M 228.960938 258.824219 "/>
</g>
</g>
</g>
<g clip-path="url(#clip4)" clip-rule="nonzero">
<g clip-path="url(#clip5)" clip-rule="nonzero">
<g clip-path="url(#clip6)" clip-rule="nonzero">
<path style=" stroke:none;fill-rule:nonzero;fill:rgb(100%,79.998779%,0%);fill-opacity:1;" d="M 987.53125 296.382812 C 942.769531 274.457031 896.34375 251.699219 841.71875 246.082031 C 794.246094 241.257812 749.113281 250.386719 709.394531 258.5625 L 609.4375 279.011719 C 576 285.898438 541.382812 292.917969 511.035156 289.722656 C 492.363281 287.777344 472.300781 281.449219 451.257812 274.945312 C 433 268.882812 414.304688 263.855469 395.527344 259.652344 C 337.207031 247.765625 279.15625 253.109375 229.273438 259.019531 C 132.222656 270.367188 44.335938 287.285156 -36.421875 310.230469 L -66.554688 357.9375 C 22.996094 329.382812 122.230469 308.691406 233.347656 295.507812 C 280.363281 289.976562 334.984375 284.871094 387.839844 295.714844 C 405.480469 299.636719 422.789062 304.441406 440.011719 310.070312 C 462.910156 317.09375 484.578125 323.996094 506.699219 326.367188 C 542.863281 330.394531 580.382812 322.585938 616.53125 315.21875 L 716.488281 294.769531 C 753.65625 287.171875 795.824219 278.578125 837.539062 282.824219 C 885.734375 287.886719 928.992188 309.078125 971 329.484375 C 990.320312 339.0625 1009.269531 348.1875 1028.128906 355.722656 L 1048.28125 323.8125 C 1028.65625 316.453125 1008.359375 306.691406 987.53125 296.382812 Z M 987.53125 296.382812 "/>
</g>
</g>
</g>
<g clip-path="url(#clip7)" clip-rule="nonzero">
<g clip-path="url(#clip8)" clip-rule="nonzero">
<g clip-path="url(#clip9)" clip-rule="nonzero">
<path style=" stroke:none;fill-rule:nonzero;fill:rgb(11.369324%,80.389404%,82.749939%);fill-opacity:1;" d="M 237.734375 332.195312 C 281.886719 327.039062 332.820312 322.230469 380.464844 331.976562 C 396.660156 335.421875 412.378906 340.316406 429.074219 345.390625 C 452.597656 352.808594 476.949219 360.3125 502.929688 363.15625 C 544.855469 367.753906 587.023438 359.160156 624.289062 351.410156 L 724.25 330.957031 C 760.492188 323.4375 798.070312 315.882812 834.179688 319.652344 C 875.894531 323.898438 914.476562 342.796875 955.191406 362.824219 C 972.691406 371.472656 990.292969 379.960938 1008.488281 387.515625 L 1028.441406 355.917969 C 1009.582031 348.382812 990.730469 339.101562 971.3125 329.683594 C 929.40625 309.121094 886.148438 287.925781 837.851562 283.023438 C 795.980469 278.675781 753.96875 287.367188 716.800781 294.964844 L 616.84375 315.414062 C 580.597656 322.9375 543.019531 330.492188 507.011719 326.566406 C 484.734375 324.09375 463.125 317.449219 440.324219 310.265625 C 423.101562 304.640625 405.792969 299.835938 388.152344 295.914062 C 335.296875 285.066406 280.675781 290.171875 233.660156 295.707031 C 122.230469 308.691406 22.996094 329.382812 -66.554688 357.9375 L -97.96875 407.675781 C 0.0859375 372.238281 110.710938 347.363281 237.734375 332.195312 Z M 237.734375 332.195312 "/>
</g>
</g>
</g>
</g>
</svg>
