<?xml version="1.0" encoding="UTF-8"?>
<svg xmlns="http://www.w3.org/2000/svg" xmlns:xlink="http://www.w3.org/1999/xlink" width="1012.5pt" height="487.499991pt" viewBox="0 0 1012.5 487.499991" version="1.2">
<defs>
<clipPath id="clip1">
  <path d="M 0.269531 208 L 1011.730469 208 L 1011.730469 307 L 0.269531 307 Z M 0.269531 208 "/>
</clipPath>
<clipPath id="clip2">
  <path d="M 0.269531 248 L 1011.730469 248 L 1011.730469 347 L 0.269531 347 Z M 0.269531 248 "/>
</clipPath>
<clipPath id="clip3">
  <path d="M 0.269531 289 L 1011.730469 289 L 1011.730469 387.644531 L 0.269531 387.644531 Z M 0.269531 289 "/>
</clipPath>
</defs>
<g id="surface1">
<g clip-path="url(#clip1)" clip-rule="nonzero">
<path style=" stroke:none;fill-rule:nonzero;fill:rgb(98.039246%,2.749634%,71.369934%);fill-opacity:1;" d="M 325.050781 276.738281 C 395.832031 284.429688 469.242188 292.328125 540.832031 297.996094 C 677.335938 308.722656 846.199219 314.59375 1012.230469 279.574219 L 1012.230469 238.074219 C 848.425781 274.105469 679.964844 268.234375 544.066406 257.710938 C 472.882812 252.039062 400.078125 244.144531 329.5 236.65625 C 221.914062 224.710938 111.699219 212.765625 0.269531 208.109375 L 0.269531 248.597656 C 109.878906 253.457031 218.878906 265.199219 325.050781 276.738281 Z M 325.050781 276.738281 "/>
</g>
<g clip-path="url(#clip2)" clip-rule="nonzero">
<path style=" stroke:none;fill-rule:nonzero;fill:rgb(100%,79.998779%,0%);fill-opacity:1;" d="M 540.832031 297.996094 C 469.039062 292.328125 395.832031 284.429688 325.050781 276.738281 C 218.878906 265.199219 109.878906 253.457031 0.269531 248.597656 L 0.269531 289.085938 C 108.058594 293.742188 215.847656 305.484375 320.601562 316.820312 C 391.789062 324.515625 465.398438 332.613281 537.59375 338.28125 C 674.910156 349.011719 843.976562 354.882812 1012.230469 320.871094 L 1012.230469 279.371094 C 846.402344 314.59375 677.539062 308.722656 540.832031 297.996094 Z M 540.832031 297.996094 "/>
</g>
<g clip-path="url(#clip3)" clip-rule="nonzero">
<path style=" stroke:none;fill-rule:nonzero;fill:rgb(11.369324%,80.389404%,82.749939%);fill-opacity:1;" d="M 537.796875 338.28125 C 465.398438 332.613281 391.988281 324.71875 320.804688 316.820312 C 215.847656 305.484375 108.058594 293.945312 0.269531 289.085938 L 0.269531 329.574219 C 106.238281 334.230469 212.609375 345.769531 316.355469 357.109375 C 387.742188 364.800781 461.757812 372.898438 534.5625 378.566406 C 594.828125 383.222656 661.160156 387.070312 730.929688 387.070312 C 820.921875 387.070312 916.375 380.792969 1012.230469 361.964844 L 1012.230469 320.871094 C 844.175781 355.082031 674.910156 349.011719 537.796875 338.28125 Z M 537.796875 338.28125 "/>
</g>
</g>
</svg>
