<svg xmlns="http://www.w3.org/2000/svg" width="1013" height="487" viewBox="0 0 1012.5 487.5"><defs><clipPath><path d="M0.3 231L1011.7 231 1011.7 385 0.3 385ZM0.3 231"/></clipPath><clipPath><path d="M66.2-165.8L1055.5 128.5 916.6 595.5 -72.8 301.2ZM66.2-165.8"/></clipPath><clipPath><path d="M66.2-165.8L1055.5 128.5 916.6 595.5 -72.8 301.2ZM66.2-165.8"/></clipPath><clipPath><path d="M0.3 179L1011.7 179 1011.7 332 0.3 332ZM0.3 179"/></clipPath><clipPath><path d="M66.2-165.8L1055.5 128.5 916.6 595.5 -72.8 301.2ZM66.2-165.8"/></clipPath><clipPath><path d="M66.2-165.8L1055.5 128.5 916.6 595.5 -72.8 301.2ZM66.2-165.8"/></clipPath><clipPath><path d="M0.3 127L1011.7 127 1011.7 281 0.3 281ZM0.3 127"/></clipPath><clipPath><path d="M66.2-165.8L1055.5 128.5 916.6 595.5 -72.8 301.2ZM66.2-165.8"/></clipPath><clipPath><path d="M66.2-165.8L1055.5 128.5 916.6 595.5 -72.8 301.2ZM66.2-165.8"/></clipPath></defs><g clip-path="url(#clip1)"><g clip-path="url(#clip2)"><g clip-path="url(#clip3)"><path d="M781.1 261C754.4 266.8 727.1 273.1 700.5 279.4 586.4 306 468.6 333.4 345.4 332.1 260.6 331.2 170.1 316.8 60.8 286.6 50.9 283.9 41 281 31.1 278 0.2 268.8-29.2 259-57.3 248.5L-72.1 298.4C-43.8 308.9-14.4 318.6 16.3 327.7 26.4 330.7 36.7 333.5 47 336.6 160.7 368 255.3 383 344.8 384 474.2 385.5 595.2 357.3 712.1 330 738.5 323.9 765.6 317.5 791.9 311.8 860.7 296.9 936 283.3 1009.3 283.2L1024.8 231.1C942.1 229.6 857.6 244.3 781.1 261ZM781.1 261" style=" stroke:none;fill:rgb(11.369324%,80.389404%,82.749939%)"/></g></g></g><g clip-path="url(#clip4)"><g clip-path="url(#clip5)"><g clip-path="url(#clip6)"><path d="M688.8 228.8C577.8 254.5 463 281.3 346.2 280.2 265.9 279.4 179.7 265.6 74.9 236.5 65.1 233.9 55.6 231 46.1 228.2 15.2 219-14.3 209.1-42.2 198.5L-57 248.4C-28.9 258.9 0.5 268.7 31.3 277.9 41 280.8 50.9 283.7 61.1 286.5 170.3 316.6 260.6 331 345.6 331.9 468.9 333.3 586.6 305.9 700.7 279.3 727.1 273.1 754.7 266.7 781.4 260.8 857.9 244.1 942.2 229.4 1025.2 231L1040.5 179.6C948 175.8 854.4 191.9 770.2 210.1 743 216 715.5 222.5 688.8 228.8ZM688.8 228.8" style=" stroke:none;fill:rgb(100%,79.998779%,0%)"/></g></g></g><g clip-path="url(#clip7)"><g clip-path="url(#clip8)"><g clip-path="url(#clip9)"><path d="M46.1 228.2C55.6 231 65.1 233.9 74.9 236.5 179.6 265.3 265.9 279.4 346.2 280.2 463.2 281.4 577.9 254.8 688.8 228.8 715.5 222.5 743 216 770.1 210.3 854.4 192.1 947.7 175.9 1040.5 179.8L1055.7 128.5C953.4 122.2 850.8 139.5 759.2 159.4 731.8 165.5 704 171.9 677.2 178.1 569.1 203.3 457.4 229.3 346.8 228 271.2 227.3 189.3 213.9 88.8 186.2 47.4 174.7 8.7 162.1-27.3 148.4L-42.1 198.3C-14.3 209.1 15 219 46.1 228.2ZM46.1 228.2" style=" stroke:none;fill:rgb(98.039246%,2.749634%,71.369934%)"/></g></g></g></svg>